<svg xmlns="http://www.w3.org/2000/svg" width="480" height="595" viewBox="0 0 480 595">
  <defs>
    <linearGradient id="bgGrad" x1="0%" y1="0%" x2="100%" y2="100%">
      <stop offset="0%" stop-color="#0d1117"/>
      <stop offset="100%" stop-color="#161022"/>
    </linearGradient>
    <linearGradient id="borderGrad" x1="0%" y1="0%" x2="100%" y2="100%">
      <stop offset="0%" stop-color="#A78BFA"/>
      <stop offset="50%" stop-color="#6D5BD0"/>
      <stop offset="100%" stop-color="#A78BFA"/>
    </linearGradient>
    <filter id="glow" x="-20%" y="-20%" width="140%" height="140%">
      <feGaussianBlur stdDeviation="1.1" result="blur"/>
      <feMerge><feMergeNode in="blur"/><feMergeNode in="SourceGraphic"/></feMerge>
    </filter>
  </defs>

  <rect width="480" height="595" rx="14" fill="url(#bgGrad)"/>
  <rect x="4" y="4" width="472" height="587" rx="12" fill="none" stroke="url(#borderGrad)" stroke-width="1.6" opacity="0.85"/>

  <g font-family="Fira Code, Consolas, monospace">

    <!-- Name + role -->
    <text x="28" y="52" font-size="25" font-weight="700" fill="#f2f0ff">Mahandar Khatri</text>
    <text x="28" y="76" font-size="13" fill="#A78BFA">BSCS Student @ FAST-NUCES Karachi</text>

    <line x1="28" y1="94" x2="452" y2="94" stroke="#3a3550" stroke-width="1"/>

    <!-- Philosophy -->
    <text x="28" y="120" font-size="10.5" letter-spacing="2" fill="#6D5BD0">PHILOSOPHY</text>
    <text x="28" y="146" font-size="15" font-style="italic" fill="#e6e2f5" filter="url(#glow)">&#8220;Living to lead a change.&#8221;</text>

    <line x1="28" y1="168" x2="452" y2="168" stroke="#3a3550" stroke-width="1"/>

    <!-- Focus tags -->
    <text x="28" y="194" font-size="10.5" letter-spacing="2" fill="#6D5BD0">FOCUS</text>

    <rect x="28" y="206" width="92" height="28" rx="14" fill="#1b1530" stroke="#A78BFA" stroke-width="1" opacity="0.9"/>
    <text x="74" y="224" font-size="12" fill="#d8cfff" text-anchor="middle">AI Agents</text>

    <rect x="130" y="206" width="100" height="28" rx="14" fill="#1b1530" stroke="#A78BFA" stroke-width="1" opacity="0.9"/>
    <text x="180" y="224" font-size="12" fill="#d8cfff" text-anchor="middle">Full-Stack</text>

    <rect x="240" y="206" width="102" height="28" rx="14" fill="#1b1530" stroke="#A78BFA" stroke-width="1" opacity="0.9"/>
    <text x="291" y="224" font-size="12" fill="#d8cfff" text-anchor="middle">Systems UI</text>

    <line x1="28" y1="256" x2="452" y2="256" stroke="#3a3550" stroke-width="1"/>

    <!-- Currently -->
    <text x="28" y="282" font-size="10.5" letter-spacing="2" fill="#6D5BD0">CURRENTLY BUILDING</text>
    <text x="28" y="306" font-size="13.5" fill="#e6e2f5">Deepening applied-AI skills —</text>
    <text x="28" y="328" font-size="13.5" fill="#e6e2f5">RAG pipelines, agentic tooling, LLM apps</text>

    <line x1="28" y1="352" x2="452" y2="352" stroke="#3a3550" stroke-width="1"/>

    <!-- Highlights -->
    <text x="28" y="378" font-size="10.5" letter-spacing="2" fill="#6D5BD0">HIGHLIGHTS</text>

    <circle cx="33" cy="402" r="3" fill="#A78BFA"/>
    <text x="46" y="406" font-size="13.5" fill="#d8d4e8">Built a RAG chatbot with LangChain + vector search</text>

    <circle cx="33" cy="428" r="3" fill="#A78BFA"/>
    <text x="46" y="432" font-size="13.5" fill="#d8d4e8">Shipped a full-stack 3D travel planner (Udaan)</text>

    <circle cx="33" cy="454" r="3" fill="#A78BFA"/>
    <text x="46" y="458" font-size="13.5" fill="#d8d4e8">Sharpening DSA on Codeforces</text>

    <circle cx="33" cy="480" r="3" fill="#A78BFA"/>
    <text x="46" y="484" font-size="13.5" fill="#d8d4e8">Led a 6-member community teaching initiative</text>

    <line x1="28" y1="510" x2="452" y2="510" stroke="#3a3550" stroke-width="1"/>

    <!-- Footer caption, matching the ascii card's terminal-style caption -->
    <text x="28" y="536" font-size="11" fill="#A78BFA" opacity="0.85">&gt; role: student &#183; focus: applied-ai &#183; status: building</text>
    <text x="28" y="558" font-size="11" fill="#6D5BD0" opacity="0.75">&gt; codeforces: _gazzy284</text>
  </g>
</svg>
